<svg width="20" height="20" viewBox="0 0 20 20" fill="none" xmlns="http://www.w3.org/2000/svg">
<path fill-rule="evenodd" clip-rule="evenodd" d="M9.37374 2.91602C6.01928 2.91602 3.29996 5.63534 3.29996 8.98982C3.29996 12.3442 6.01928 15.0636 9.37374 15.0636C12.7282 15.0636 15.4475 12.3442 15.4475 8.98982C15.4475 5.63534 12.7282 2.91602 9.37374 2.91602ZM2.04996 8.98982C2.04996 4.94499 5.32892 1.66602 9.37374 1.66602C13.4186 1.66602 16.6975 4.94499 16.6975 8.98982C16.6975 13.0346 13.4186 16.3136 9.37374 16.3136C5.32892 16.3136 2.04996 13.0346 2.04996 8.98982Z" fill="#99A0AE"/>
<path fill-rule="evenodd" clip-rule="evenodd" d="M13.9466 13.0391L18.6262 17.7065L17.7434 18.5915L13.0638 13.9241L13.9466 13.0391Z" fill="#99A0AE"/>
</svg>
