<svg width="19" height="20" viewBox="0 0 19 20" fill="none" xmlns="http://www.w3.org/2000/svg">
<path fill-rule="evenodd" clip-rule="evenodd" d="M5.95894 2.52859C5.95894 1.13292 7.09037 0 8.48757 0H9.66097C9.68037 0 9.69837 0.00045997 9.70727 0.00067997L9.70887 0.000720024C9.71757 0.000940024 9.71977 0.000969887 9.71977 0.000969887C9.72787 0.000969887 9.73557 0.00109995 9.74367 0.00136995C11.1398 0.04671 12.2361 1.20962 12.2024 2.60334C12.206 2.76705 12.2515 2.92741 12.3354 3.07025L12.3382 3.07483L12.3399 3.07761C12.3409 3.07933 12.3419 3.08105 12.3429 3.08277C12.6319 3.57139 13.263 3.7328 13.751 3.44326L13.7604 3.4377C14.9745 2.74097 16.5236 3.15609 17.2251 4.36845L17.2256 4.36946L17.8085 5.38038C17.8228 5.40521 17.8356 5.43077 17.8469 5.45692C18.4855 6.65772 18.0627 8.1553 16.8801 8.8434L16.875 8.8464C16.719 8.9355 16.589 9.0656 16.4999 9.2221L16.4912 9.2368L16.4899 9.2389C16.2108 9.7285 16.3782 10.351 16.8637 10.6354C16.8646 10.6359 16.8654 10.6364 16.8664 10.6368C16.8707 10.6392 16.8755 10.6418 16.8806 10.6447C16.8907 10.6504 16.9038 10.6581 16.9188 10.6677C18.1086 11.3775 18.5063 12.9144 17.8064 14.1134L17.8021 14.1208L17.1879 15.1457C16.4858 16.3525 14.9397 16.768 13.7276 16.0717C13.5748 15.985 13.405 15.937 13.2315 15.9311H13.2211C12.6544 15.9363 12.1983 16.3996 12.2022 16.9662L12.2023 16.9766C12.1926 18.3736 11.0576 19.5 9.66097 19.5H8.49147C7.08947 19.5 5.95258 18.3651 5.95019 16.9642C5.94811 16.7998 5.90379 16.638 5.82137 16.4948C5.81522 16.4852 5.80928 16.4755 5.80357 16.4657C5.51956 15.9768 4.89243 15.8111 4.40408 16.0957C4.4039 16.0958 4.40425 16.0956 4.40408 16.0957L4.4006 16.0978C4.39524 16.101 4.38826 16.1051 4.38004 16.1096C4.37735 16.1111 4.37448 16.1127 4.37142 16.1143C3.14523 16.7863 1.60786 16.3419 0.928933 15.121L0.351053 14.125C0.349373 14.1223 0.347643 14.1195 0.345873 14.1166C0.341993 14.1102 0.337753 14.103 0.333273 14.0951C-0.358127 12.8844 0.0607331 11.3421 1.2705 10.648C1.5927 10.4616 1.79072 10.1178 1.79072 9.7471C1.79072 9.3748 1.59217 9.0309 1.26969 8.8448L1.26869 8.8442C0.058233 8.143 -0.359097 6.59297 0.339813 5.37885L0.348893 5.36351L0.970663 4.34043C1.67419 3.13393 3.21931 2.72206 4.43089 3.41734L4.43958 3.42233C4.58583 3.50887 4.75058 3.55514 4.91858 3.5572C5.48522 3.55752 5.94864 3.10261 5.95894 2.53536V2.52859ZM12.3449 3.08635C12.3455 3.08739 12.346 3.08823 12.3456 3.08759L12.3449 3.08635ZM8.48757 1.5C7.91927 1.5 7.45897 1.96081 7.45897 2.52859V2.55166C7.43957 3.94296 6.30378 5.06133 4.91157 5.05719L4.90655 5.05717C4.47421 5.05299 4.05221 4.93489 3.68089 4.71639C3.18309 4.43315 2.55103 4.60418 2.2646 5.09922L2.25634 5.11314L1.63597 6.13391C1.3556 6.62928 1.52664 7.26012 2.02054 7.5462L1.64462 8.1952L2.01954 7.54563C2.80625 7.9997 3.29072 8.8389 3.29072 9.7471C3.29072 10.6545 2.80606 11.4936 2.01954 11.9476L2.01752 11.9487C1.52954 12.2284 1.35749 12.8473 1.62842 13.3381C1.62889 13.3388 1.62937 13.3396 1.62984 13.3404C1.63326 13.346 1.63695 13.3522 1.64083 13.359L2.2301 14.3747L2.23807 14.3888C2.51415 14.8892 3.14106 15.0733 3.64377 14.8026C3.64767 14.8003 3.65223 14.7977 3.65734 14.7948C4.8539 14.1036 6.38417 14.5044 7.08857 15.6918C7.08927 15.6929 7.08997 15.6939 7.09057 15.6949C7.09697 15.705 7.10257 15.7144 7.10377 15.7164L7.10627 15.7206C7.32697 16.0936 7.44597 16.5185 7.45017 16.9525V16.9597C7.45017 17.5338 7.91587 18 8.49147 18H9.66097C10.2322 18 10.6961 17.5407 10.7022 16.9703C10.6959 15.5771 11.8193 14.4408 13.213 14.4312L13.2182 14.4311H13.2425L13.2618 14.4314C13.6883 14.4424 14.1026 14.5593 14.4705 14.7686L14.4738 14.7705C14.9701 15.0561 15.6052 14.886 15.8927 14.3891L15.8984 14.3791L16.5129 13.354C16.7967 12.8637 16.6309 12.2363 16.1414 11.9506C16.1379 11.9486 16.1344 11.9465 16.131 11.9444C14.9216 11.2546 14.4973 9.7173 15.1815 8.5054C15.1909 8.4881 15.1988 8.4752 15.2026 8.4689C15.424 8.0849 15.7441 7.7657 16.1277 7.54579C16.6204 7.25766 16.789 6.62769 16.5072 6.13325C16.4959 6.11355 16.4856 6.0934 16.4763 6.07286L15.9267 5.11966C15.9267 5.11955 15.9268 5.11976 15.9267 5.11966C15.6403 4.62494 15.0084 4.4537 14.5107 4.73666C13.3115 5.444 11.7648 5.04765 11.0538 3.84969L11.0507 3.84463L11.0491 3.84188C11.0481 3.8402 11.0471 3.83851 11.0461 3.83682C10.8256 3.46423 10.7065 3.04028 10.7022 2.60591C10.7021 2.59562 10.7023 2.58532 10.7026 2.57504C10.7206 2.00281 10.274 1.52385 9.70317 1.50088C9.69037 1.50073 9.67937 1.50045 9.67297 1.50029L9.67137 1.50025C9.66307 1.50004 9.66067 1.50001 9.66047 1.5H8.48757ZM3.62311 14.8151C3.62232 14.8156 3.62363 14.8148 3.62524 14.8138L3.62311 14.8151ZM9.07827 8.0305C8.12927 8.0305 7.36077 8.799 7.36077 9.748C7.36077 10.6969 8.12927 11.4654 9.07827 11.4654C10.0272 11.4654 10.7957 10.6969 10.7957 9.748C10.7957 8.799 10.0272 8.0305 9.07827 8.0305ZM5.86076 9.748C5.86076 7.9706 7.30087 6.53051 9.07827 6.53051C10.8556 6.53051 12.2957 7.9706 12.2957 9.748C12.2957 11.5253 10.8556 12.9654 9.07827 12.9654C7.30087 12.9654 5.86076 11.5253 5.86076 9.748Z" fill="#99A0AE"/>
</svg>
